<svg xmlns="http://www.w3.org/2000/svg" viewBox="0 0 303.46 219.33">
  <path 
    d="M283.46,77.64H150.3a22.42,22.42,0,0,1-19.61-12.21l-3.79-7.06C122.8,50,119.65,47,113.39,47H22.68c-6.26,0-11.34,5.49-11.34,12.27V234c0,6.77,5.08,12.26,11.34,12.26H283.46c6.27,0,11.34-5.49,11.34-12.26V89.91C294.8,83.13,289.73,77.64,283.46,77.64Z" 
    transform="translate(-1.34 -36.97)" 
    fill="none" 
    stroke="#ef8e19" 
    stroke-miterlimit="10" 
    stroke-width="20"
  />
  <path 
    d="M32.89,186.87a51.54,51.54,0,0,0-.54-8.82c2.4.12,3.9.18,8.88.18H53.77c7.38,0,13.32,2,17.34,5.94,4.38,4.32,6.6,10.62,6.6,18.6,0,8.22-2.4,14.82-7,19.38-4,4-9.72,6-16.86,6H41.23c-4.62,0-6.3.06-8.82.18a57.26,57.26,0,0,0,.48-8.76Zm19.92,30.78c3.9,0,6.66-1,8.82-3.18,2.46-2.52,3.78-6.54,3.78-11.52s-1.14-8.82-3.48-11.16c-2.1-2.1-5-3.06-9.3-3.06H44.77v28.92Z" 
    transform="translate(-1.34 -36.97)" 
    fill="#ef8e19"
  />
  <path 
    d="M95.71,191.55a59.63,59.63,0,0,0-.48,9.06v18.48a81.86,81.86,0,0,0,.48,9.06H83.17a67.12,67.12,0,0,0,.48-9.06V200.61a64.33,64.33,0,0,0-.48-9.06Zm-.18-13.32v9H83.35v-9Z" 
    transform="translate(-1.34 -36.97)" 
    fill="#ef8e19"
  />
  <path 
    d="M129.07,202.35a19.37,19.37,0,0,0-6.12-1.14,8.62,8.62,0,0,0-7.14,3.24c-1.14,1.44-1.56,2.7-1.8,5.34v9.36a65.62,65.62,0,0,0,.48,9H102.07a67.12,67.12,0,0,0,.48-9.06V200.61a59.12,59.12,0,0,0-.48-9.06H114v4.74c2.94-3.84,6.54-5.46,12-5.46a24.22,24.22,0,0,1,5.94.72Z" 
    transform="translate(-1.34 -36.97)" 
    fill="#ef8e19"
  />
  <path 
    d="M168.13,195.63c-1.14-5.46-4.32-8.16-9.48-8.16-7.32,0-11.58,5.76-11.58,15.66s4.44,15.72,11.88,15.72a9.46,9.46,0,0,0,7.86-3.78,10.23,10.23,0,0,0,1.8-5.16l12.48,1.86c-1.14,5.1-2.46,8-5,11-3.72,4.26-9.54,6.54-16.8,6.54s-13.5-2.28-17.76-6.6c-4.44-4.5-7-11.52-7-19.56s2.52-15.06,7.26-19.74c4.14-4,10.2-6.24,17.22-6.24,7.74,0,13.8,2.64,17.7,7.86a18.53,18.53,0,0,1,3.72,8.22Z" 
    transform="translate(-1.34 -36.97)" 
    fill="#ef8e19"
  />
  <path 
    d="M186.25,228.15a66,66,0,0,0,.48-9.06V200.61a55.72,55.72,0,0,0-.48-9.06h11.88v2.52a6.2,6.2,0,0,1-.06.84v.6a14.53,14.53,0,0,1,11.46-4.92,12.78,12.78,0,0,1,7.68,2.16,7.38,7.38,0,0,1,2.46,3,16.42,16.42,0,0,1,12.6-5.22c8.58,0,13,4.68,13,13.74v14.88a66.18,66.18,0,0,0,.48,9H233.23a63.79,63.79,0,0,0,.48-9.06V206.73c0-4.5-1.32-6.24-4.74-6.24-3.06,0-5.82,2.4-7.32,6.42v12.24a67.9,67.9,0,0,0,.48,9H209.65a64.88,64.88,0,0,0,.48-9.06V206.73c0-2.52-.24-3.66-1-4.68a3.87,3.87,0,0,0-3.3-1.5c-3.24,0-6,2.34-7.68,6.42v12.12a67.69,67.69,0,0,0,.48,9.06Z" 
    transform="translate(-1.34 -36.97)" 
    fill="#ef8e19"
  />
  <path 
    d="M256.69,190.29a61.16,61.16,0,0,0-.48-8.22h12.24a69.72,69.72,0,0,0-.48,8.22v1.26h2.16a41,41,0,0,0,5.88-.3v10a38.76,38.76,0,0,0-5.52-.36H268v15.36c0,1.68.3,2.52,1.08,3.06a5.21,5.21,0,0,0,2.76.66,8.28,8.28,0,0,0,4.2-1.08l.9,9.12a25.81,25.81,0,0,1-8.28,1.2c-4.08,0-6.9-.66-8.82-2.1-2.28-1.74-3.12-3.78-3.12-7.86V200.85h-2.28a36.27,36.27,0,0,0-5.22.36v-10a36.18,36.18,0,0,0,5.34.36h2.16Z" 
    transform="translate(-1.34 -36.97)" 
    fill="#ef8e19"
  />
</svg>