<svg viewBox="0 0 121 121" fill="none" xmlns="http://www.w3.org/2000/svg">
  <path 
    d="M29.7985 101.301C25.8435 102.299 24.2152 101.289 23.2853 97.2583L5.6177 20.6812C4.68783 16.6508 5.69621 14.9746 9.65124 13.9763L43.2689 5.49085C45.9056 4.82532 45.889 4.75334 48.348 6.34135C50.8071 7.92937 65.4666 17.437 67.2966 18.6189C69.6709 20.1521 69.6709 20.1521 70.2908 22.839L83.9289 81.9512C85.0138 86.6533 83.8504 87.6578 79.8954 88.6561L29.7985 101.301Z" 
    fill="white" 
    stroke="black" 
    stroke-width="2"
  />
  <path 
    d="M20.0972 40.7524C24.8836 37.4782 24.8836 37.4782 30.7454 38.0847C36.6072 38.6912 36.9349 38.6091 41.3936 35.417C45.8523 32.2249 45.8523 32.2249 52.0418 32.7494C58.2312 33.2738 57.9036 33.3559 62.6899 30.0817"
    stroke="black"
    stroke-width="2"
  />
  <path 
    d="M23.337 54.5758C28.1233 51.3016 28.1233 51.3016 33.9852 51.9081C39.847 52.5146 40.1746 52.4325 44.6333 49.2404C49.092 46.0483 49.092 46.0483 55.2815 46.5727C61.471 47.0971 61.1433 47.1792 65.9297 43.905"
    stroke="black"
    stroke-width="2"
  />
  <path 
    d="M26.5767 68.3992C31.3631 65.125 31.3631 65.125 37.2249 65.7315C43.0867 66.338 43.4144 66.2559 47.8731 63.0638C52.3318 59.8717 52.3318 59.8717 58.5213 60.3961C64.7107 60.9206 64.3831 61.0026 69.1694 57.7285"
    stroke="black" 
    stroke-width="2"
  />
  <path 
    d="M1.00001 53.9131C1.00001 48.6957 2.68896 46.9565 7.75576 46.9565H48.2903C55.046 46.9565 56.7349 48.6957 56.7349 53.9131C56.7349 59.1305 56.7349 55.6522 56.7349 57.3913C56.7349 59.1305 56.7349 59.1305 58.4239 59.1305L109.092 59.1305C115.848 59.1305 117.537 60.8696 117.537 66.087V111.304C117.537 118.261 115.848 120 109.092 120H7.75576C2.68897 120 1.00003 118.261 1.00001 113.044V53.9131Z"
    fill="white"
    stroke="black"
    stroke-width="2"
  />
  <path 
    d="M66.9508 76.3221L97.2274 5.20877C98.4148 2.42001 100.383 1.65217 103.132 2.90525L116.877 9.17063C119.626 10.4237 120.406 12.4446 119.219 15.2334L88.9424 86.3467L71.418 103.246L67.5437 106.982C66.667 107.828 66.667 107.828 66.6782 106.588L66.7275 101.108L66.9508 76.3221Z" 
    fill="white"
  />
  <path 
    d="M66.7275 101.108C66.7004 104.123 66.6811 106.27 66.6782 106.588C66.667 107.828 66.667 107.828 67.5437 106.982L71.418 103.246M66.7275 101.108C66.8063 92.3672 66.9508 76.3221 66.9508 76.3221C66.9508 76.3221 96.0401 7.99753 97.2274 5.20877C98.4148 2.42001 100.383 1.65217 103.132 2.90525C104.951 3.7346 114.128 7.91755 116.877 9.17063C119.626 10.4237 120.406 12.4446 119.219 15.2334C118.032 18.0221 88.9424 86.3467 88.9424 86.3467L71.418 103.246M66.7275 101.108C68.9481 100.542 70.3226 101.169 71.418 103.246"
    stroke="black"
    stroke-width="2"
  />
  <path 
    d="M67.025 76.2833C77.4241 76.8694 81.5399 78.7477 88.9762 86.3004M96.0608 8.00977C96.6096 8.26019 110.924 14.7922 118.012 18.0269M94.2831 12.1898L116.234 22.2069"
    stroke="black"
    stroke-width="2"
  />
  <path 
    d="M16.2766 67.3431V86.5385H12.3347V67.3431H16.2766ZM22.1829 67.3431V70.4413H6.52075V67.3431H22.1829ZM27.074 75.3851V86.5385H23.2771V72.2738H26.8499L27.074 75.3851ZM31.3718 72.1815L31.3059 75.7015C31.1213 75.6752 30.8972 75.6532 30.6335 75.6356C30.3787 75.6093 30.1458 75.5961 29.9348 75.5961C29.3987 75.5961 28.9329 75.6664 28.5374 75.807C28.1506 75.9388 27.8254 76.1366 27.5618 76.4003C27.3069 76.6639 27.1135 76.9847 26.9817 77.3627C26.8586 77.7406 26.7883 78.1713 26.7708 78.6547L26.0061 78.4174C26.0061 77.4945 26.0984 76.6464 26.283 75.8729C26.4675 75.0907 26.7356 74.4095 27.0872 73.8295C27.4475 73.2494 27.887 72.8011 28.4055 72.4847C28.9241 72.1683 29.5173 72.0101 30.1853 72.0101C30.3962 72.0101 30.6116 72.0277 30.8313 72.0629C31.051 72.0892 31.2312 72.1288 31.3718 72.1815ZM39.4666 86.8021C38.3591 86.8021 37.366 86.6263 36.4871 86.2748C35.6082 85.9144 34.8611 85.4178 34.2458 84.785C33.6394 84.1522 33.1736 83.4183 32.8484 82.5834C32.5232 81.7396 32.3606 80.8431 32.3606 79.8939V79.3666C32.3606 78.2855 32.5144 77.2968 32.822 76.4003C33.1296 75.5038 33.5691 74.726 34.1404 74.0668C34.7205 73.4076 35.4236 72.9022 36.2498 72.5507C37.0759 72.1903 38.0076 72.0101 39.0447 72.0101C40.0554 72.0101 40.9519 72.1771 41.7341 72.5111C42.5164 72.8451 43.1711 73.3197 43.6985 73.9349C44.2346 74.5502 44.6389 75.2885 44.9114 76.1498C45.1838 77.0023 45.3201 77.9515 45.3201 78.9974V80.5795H33.9822V78.0482H41.5891V77.7582C41.5891 77.2308 41.4924 76.7606 41.2991 76.3475C41.1145 75.9257 40.8333 75.5917 40.4553 75.3456C40.0774 75.0995 39.594 74.9764 39.0051 74.9764C38.5042 74.9764 38.0735 75.0863 37.7131 75.306C37.3528 75.5258 37.0583 75.8334 36.8298 76.2289C36.6101 76.6244 36.4431 77.0902 36.3289 77.6263C36.2234 78.1537 36.1707 78.7338 36.1707 79.3666V79.8939C36.1707 80.4652 36.2498 80.9926 36.408 81.476C36.575 81.9594 36.8079 82.3768 37.1067 82.7284C37.4143 83.08 37.7834 83.3524 38.2141 83.5458C38.6536 83.7391 39.1501 83.8358 39.7039 83.8358C40.3894 83.8358 41.0266 83.704 41.6155 83.4403C42.2131 83.1678 42.7273 82.7592 43.158 82.2142L45.0037 84.2181C44.7048 84.6488 44.2961 85.0619 43.7776 85.4574C43.2678 85.8529 42.6526 86.1781 41.9319 86.433C41.2112 86.6791 40.3894 86.8021 39.4666 86.8021ZM54.0476 86.8021C52.9402 86.8021 51.947 86.6263 51.0681 86.2748C50.1892 85.9144 49.4421 85.4178 48.8269 84.785C48.2205 84.1522 47.7546 83.4183 47.4294 82.5834C47.1042 81.7396 46.9417 80.8431 46.9417 79.8939V79.3666C46.9417 78.2855 47.0955 77.2968 47.4031 76.4003C47.7107 75.5038 48.1501 74.726 48.7214 74.0668C49.3015 73.4076 50.0046 72.9022 50.8308 72.5507C51.657 72.1903 52.5886 72.0101 53.6257 72.0101C54.6365 72.0101 55.533 72.1771 56.3152 72.5111C57.0974 72.8451 57.7522 73.3197 58.2795 73.9349C58.8157 74.5502 59.22 75.2885 59.4924 76.1498C59.7649 77.0023 59.9011 77.9515 59.9011 78.9974V80.5795H48.5632V78.0482H56.1702V77.7582C56.1702 77.2308 56.0735 76.7606 55.8801 76.3475C55.6956 75.9257 55.4143 75.5917 55.0364 75.3456C54.6584 75.0995 54.175 74.9764 53.5862 74.9764C53.0852 74.9764 52.6545 75.0863 52.2942 75.306C51.9338 75.5258 51.6394 75.8334 51.4109 76.2289C51.1912 76.6244 51.0242 77.0902 50.9099 77.6263C50.8044 78.1537 50.7517 78.7338 50.7517 79.3666V79.8939C50.7517 80.4652 50.8308 80.9926 50.989 81.476C51.156 81.9594 51.3889 82.3768 51.6877 82.7284C51.9954 83.08 52.3645 83.3524 52.7952 83.5458C53.2346 83.7391 53.7312 83.8358 54.2849 83.8358C54.9705 83.8358 55.6077 83.704 56.1965 83.4403C56.7942 83.1678 57.3083 82.7592 57.739 82.2142L59.5847 84.2181C59.2859 84.6488 58.8772 85.0619 58.3586 85.4574C57.8489 85.8529 57.2336 86.1781 56.5129 86.433C55.7922 86.6791 54.9705 86.8021 54.0476 86.8021Z"
    fill="black"
  />
  <path 
    d="M13.5872 112.18H9.40796L9.43433 109.095H13.5872C14.6243 109.095 15.4988 108.862 16.2107 108.396C16.9226 107.921 17.4587 107.231 17.8191 106.326C18.1882 105.421 18.3728 104.326 18.3728 103.043V102.107C18.3728 101.123 18.2673 100.257 18.0564 99.5101C17.8542 98.763 17.551 98.1346 17.1467 97.6248C16.7424 97.1151 16.2458 96.7327 15.657 96.4778C15.0681 96.2142 14.3914 96.0823 13.6267 96.0823H9.32886V92.9842H13.6267C14.9099 92.9842 16.0833 93.2039 17.1467 93.6434C18.219 94.074 19.1462 94.6937 19.9285 95.5023C20.7107 96.3109 21.3127 97.2776 21.7346 98.4026C22.1653 99.5189 22.3806 100.763 22.3806 102.134V103.043C22.3806 104.406 22.1653 105.649 21.7346 106.774C21.3127 107.899 20.7107 108.866 19.9285 109.675C19.155 110.474 18.2278 111.094 17.1467 111.534C16.0745 111.964 14.8879 112.18 13.5872 112.18ZM11.6492 92.9842V112.18H7.69409V92.9842H11.6492ZM31.5828 112.443C30.4753 112.443 29.4822 112.267 28.6033 111.916C27.7244 111.555 26.9773 111.059 26.3621 110.426C25.7556 109.793 25.2898 109.059 24.9646 108.224C24.6394 107.381 24.4768 106.484 24.4768 105.535V105.008C24.4768 103.927 24.6306 102.938 24.9382 102.041C25.2458 101.145 25.6853 100.367 26.2566 99.7078C26.8367 99.0486 27.5398 98.5433 28.366 98.1917C29.1921 97.8314 30.1238 97.6512 31.1609 97.6512C32.1716 97.6512 33.0681 97.8182 33.8503 98.1522C34.6326 98.4861 35.2874 98.9608 35.8147 99.576C36.3508 100.191 36.7551 100.93 37.0276 101.791C37.3 102.643 37.4363 103.593 37.4363 104.638V106.221H26.0984V103.689H33.7053V103.399C33.7053 102.872 33.6086 102.402 33.4153 101.989C33.2307 101.567 32.9495 101.233 32.5715 100.987C32.1936 100.741 31.7102 100.617 31.1213 100.617C30.6204 100.617 30.1897 100.727 29.8293 100.947C29.469 101.167 29.1746 101.474 28.946 101.87C28.7263 102.265 28.5593 102.731 28.4451 103.267C28.3396 103.795 28.2869 104.375 28.2869 105.008V105.535C28.2869 106.106 28.366 106.634 28.5242 107.117C28.6912 107.6 28.9241 108.018 29.2229 108.369C29.5305 108.721 29.8997 108.993 30.3303 109.187C30.7698 109.38 31.2664 109.477 31.8201 109.477C32.5056 109.477 33.1428 109.345 33.7317 109.081C34.3293 108.809 34.8435 108.4 35.2742 107.855L37.1199 109.859C36.821 110.29 36.4124 110.703 35.8938 111.098C35.384 111.494 34.7688 111.819 34.0481 112.074C33.3274 112.32 32.5056 112.443 31.5828 112.443ZM47.3108 108.238C47.3108 107.965 47.2317 107.719 47.0735 107.499C46.9153 107.28 46.6208 107.077 46.1902 106.893C45.7683 106.7 45.1575 106.524 44.3577 106.366C43.637 106.207 42.9646 106.01 42.3406 105.772C41.7253 105.526 41.1892 105.232 40.7322 104.889C40.2839 104.546 39.9324 104.142 39.6775 103.676C39.4226 103.201 39.2952 102.661 39.2952 102.055C39.2952 101.457 39.4226 100.894 39.6775 100.367C39.9412 99.8397 40.3147 99.3738 40.7981 98.9695C41.2903 98.5565 41.8879 98.2357 42.5911 98.0071C43.303 97.7698 44.1028 97.6512 44.9905 97.6512C46.2297 97.6512 47.2932 97.8489 48.1809 98.2444C49.0774 98.64 49.7629 99.1849 50.2375 99.8792C50.7209 100.565 50.9626 101.347 50.9626 102.226H47.1658C47.1658 101.857 47.0867 101.527 46.9285 101.237C46.7791 100.938 46.5417 100.705 46.2166 100.538C45.9001 100.363 45.4871 100.275 44.9773 100.275C44.5554 100.275 44.1907 100.349 43.8831 100.499C43.5754 100.639 43.3381 100.833 43.1711 101.079C43.0129 101.316 42.9338 101.58 42.9338 101.87C42.9338 102.09 42.9778 102.287 43.0657 102.463C43.1624 102.63 43.3162 102.784 43.5271 102.925C43.738 103.065 44.0105 103.197 44.3445 103.32C44.6873 103.434 45.1091 103.54 45.6101 103.637C46.6384 103.847 47.5569 104.124 48.3655 104.467C49.1741 104.801 49.8157 105.258 50.2903 105.838C50.7649 106.409 51.0022 107.161 51.0022 108.093C51.0022 108.725 50.8616 109.305 50.5803 109.833C50.2991 110.36 49.8948 110.822 49.3674 111.217C48.8401 111.604 48.2073 111.907 47.469 112.127C46.7395 112.338 45.9177 112.443 45.0037 112.443C43.6765 112.443 42.5515 112.206 41.6287 111.731C40.7146 111.257 40.0203 110.655 39.5457 109.925C39.0798 109.187 38.8469 108.431 38.8469 107.658H42.446C42.4636 108.176 42.5955 108.594 42.8416 108.91C43.0964 109.226 43.4172 109.455 43.804 109.596C44.1995 109.736 44.6257 109.806 45.0828 109.806C45.575 109.806 45.9836 109.741 46.3088 109.609C46.634 109.468 46.8801 109.284 47.0471 109.055C47.2229 108.818 47.3108 108.545 47.3108 108.238ZM59.3606 109.477C59.8264 109.477 60.2395 109.389 60.5999 109.213C60.9602 109.029 61.2415 108.774 61.4436 108.449C61.6545 108.115 61.7644 107.723 61.7732 107.275H65.3459C65.3372 108.277 65.0691 109.169 64.5417 109.951C64.0144 110.725 63.3069 111.336 62.4192 111.784C61.5315 112.223 60.5383 112.443 59.4397 112.443C58.3323 112.443 57.3655 112.259 56.5393 111.889C55.7219 111.52 55.0408 111.011 54.4958 110.36C53.9509 109.701 53.5422 108.936 53.2698 108.066C52.9973 107.187 52.8611 106.247 52.8611 105.245V104.863C52.8611 103.852 52.9973 102.911 53.2698 102.041C53.5422 101.162 53.9509 100.398 54.4958 99.7474C55.0408 99.0882 55.7219 98.574 56.5393 98.2049C57.3567 97.8358 58.3147 97.6512 59.4133 97.6512C60.5823 97.6512 61.6062 97.8753 62.4851 98.3235C63.3728 98.7718 64.0671 99.4134 64.5681 100.248C65.0779 101.075 65.3372 102.055 65.3459 103.188H61.7732C61.7644 102.714 61.6633 102.283 61.47 101.896C61.2854 101.51 61.0129 101.202 60.6526 100.973C60.301 100.736 59.866 100.617 59.3474 100.617C58.7937 100.617 58.3411 100.736 57.9895 100.973C57.6379 101.202 57.3655 101.518 57.1721 101.923C56.9788 102.318 56.8425 102.771 56.7634 103.281C56.6931 103.782 56.658 104.309 56.658 104.863V105.245C56.658 105.799 56.6931 106.33 56.7634 106.84C56.8337 107.35 56.9656 107.803 57.1589 108.198C57.3611 108.594 57.6379 108.906 57.9895 109.134C58.3411 109.363 58.7981 109.477 59.3606 109.477Z" 
    fill="black"
  />
</svg>
